<svg version="1.1" viewBox="0.0 0.0 543.8950131233596 641.2650918635171" fill="none" stroke="none" stroke-linecap="square" stroke-miterlimit="10" xmlns:xlink="http://www.w3.org/1999/xlink" xmlns="http://www.w3.org/2000/svg"><clipPath id="p.0"><path d="m0 0l543.895 0l0 641.2651l-543.895 0l0 -641.2651z" clip-rule="nonzero"/></clipPath><g clip-path="url(#p.0)"><path fill="#000000" fill-opacity="0.0" d="m0 0l543.895 0l0 641.2651l-543.895 0z" fill-rule="evenodd"/><path fill="#ffffff" d="m52.614174 26.33071l118.960625 0l0 98.89764l-118.960625 0z" fill-rule="evenodd"/><path stroke="#000000" stroke-width="1.0" stroke-linejoin="round" stroke-linecap="butt" d="m52.614174 26.33071l118.960625 0l0 98.89764l-118.960625 0z" fill-rule="evenodd"/><path fill="#000000" d="m92.17471 82.699524l0 -13.359375l4.03125 0l2.421875 9.109375l2.390625 -9.109375l4.046875 0l0 13.359375l-2.5 0l0 -10.515625l-2.65625 10.515625l-2.59375 0l-2.640625 -10.515625l0 10.515625l-2.5 0zm17.462677 -6.71875l-2.328125 -0.421875q0.40625 -1.40625 1.359375 -2.078125q0.953125 -0.671875 2.84375 -0.671875q1.703125 0 2.546875 0.40625q0.84375 0.40625 1.171875 1.03125q0.34375 0.625 0.34375 2.28125l-0.015625 3.0q0 1.265625 0.109375 1.875q0.125 0.609375 0.46875 1.296875l-2.53125 0q-0.109375 -0.25 -0.25 -0.75q-0.0625 -0.234375 -0.09375 -0.3125q-0.65625 0.640625 -1.40625 0.96875q-0.734375 0.3125 -1.59375 0.3125q-1.484375 0 -2.34375 -0.8125q-0.859375 -0.8125 -0.859375 -2.046875q0 -0.828125 0.390625 -1.46875q0.390625 -0.640625 1.09375 -0.96875q0.703125 -0.34375 2.03125 -0.609375q1.796875 -0.328125 2.484375 -0.625l0 -0.25q0 -0.75 -0.359375 -1.0625q-0.359375 -0.3125 -1.375 -0.3125q-0.6875 0 -1.078125 0.28125q-0.375 0.265625 -0.609375 0.9375zm3.421875 2.078125q-0.484375 0.15625 -1.5625 0.390625q-1.0625 0.21875 -1.390625 0.4375q-0.5 0.359375 -0.5 0.90625q0 0.53125 0.40625 0.9375q0.40625 0.390625 1.015625 0.390625q0.703125 0 1.328125 -0.46875q0.46875 -0.34375 0.609375 -0.84375q0.09375 -0.328125 0.09375 -1.25l0 -0.5zm5.047592 -6.34375l0 -2.375l2.5625 0l0 2.375l-2.5625 0zm0 10.984375l0 -9.671875l2.5625 0l0 9.671875l-2.5625 0zm13.980179 0l-2.5625 0l0 -4.9375q0 -1.5625 -0.171875 -2.015625q-0.15625 -0.46875 -0.53125 -0.71875q-0.359375 -0.265625 -0.875 -0.265625q-0.671875 0 -1.203125 0.375q-0.53125 0.359375 -0.734375 0.96875q-0.1875 0.59375 -0.1875 2.21875l0 4.375l-2.546875 0l0 -9.671875l2.375 0l0 1.421875q1.265625 -1.640625 3.1875 -1.640625q0.84375 0 1.546875 0.3125q0.703125 0.296875 1.0625 0.78125q0.359375 0.46875 0.5 1.078125q0.140625 0.59375 0.140625 1.703125l0 6.015625z" fill-rule="nonzero"/><path fill="#f4cccc" d="m52.614174 175.2126l118.960625 0l0 98.89763l-118.960625 0z" fill-rule="evenodd"/><path stroke="#000000" stroke-width="1.0" stroke-linejoin="round" stroke-linecap="butt" d="m52.614174 175.2126l118.960625 0l0 98.89763l-118.960625 0z" fill-rule="evenodd"/><path fill="#000000" d="m86.51708 231.58142l0 -13.359375l5.6875 0q2.140625 0 3.109375 0.359375q0.96875 0.359375 1.546875 1.28125q0.578125 0.921875 0.578125 2.109375q0 1.5 -0.890625 2.484375q-0.875 0.96875 -2.625 1.234375q0.875 0.5 1.4375 1.125q0.578125 0.609375 1.53125 2.15625l1.640625 2.609375l-3.234375 0l-1.9375 -2.90625q-1.046875 -1.5625 -1.4375 -1.96875q-0.375 -0.40625 -0.8125 -0.546875q-0.421875 -0.15625 -1.34375 -0.15625l-0.546875 0l0 5.578125l-2.703125 0zm2.703125 -7.703125l2.0 0q1.9375 0 2.421875 -0.15625q0.484375 -0.171875 0.75 -0.578125q0.28125 -0.40625 0.28125 -1.0q0 -0.671875 -0.359375 -1.078125q-0.359375 -0.421875 -1.015625 -0.53125q-0.328125 -0.046875 -1.96875 -0.046875l-2.109375 0l0 3.390625zm10.160446 2.734375q0 -1.28125 0.625 -2.46875q0.625 -1.203125 1.78125 -1.828125q1.15625 -0.625 2.578125 -0.625q2.1875 0 3.59375 1.421875q1.40625 1.421875 1.40625 3.609375q0 2.1875 -1.421875 3.640625q-1.421875 1.4375 -3.5625 1.4375q-1.328125 0 -2.546875 -0.59375q-1.203125 -0.609375 -1.828125 -1.765625q-0.625 -1.171875 -0.625 -2.828125zm2.625 0.125q0 1.453125 0.671875 2.21875q0.6875 0.75 1.6875 0.75q1.0 0 1.671875 -0.75q0.6875 -0.765625 0.6875 -2.234375q0 -1.421875 -0.6875 -2.1875q-0.671875 -0.765625 -1.671875 -0.765625q-1.0 0 -1.6875 0.765625q-0.671875 0.765625 -0.671875 2.203125zm9.255356 4.84375l0 -13.359375l2.5625 0l0 4.8125q1.171875 -1.34375 2.796875 -1.34375q1.765625 0 2.921875 1.28125q1.15625 1.28125 1.15625 3.671875q0 2.484375 -1.1875 3.828125q-1.171875 1.328125 -2.859375 1.328125q-0.828125 0 -1.640625 -0.40625q-0.796875 -0.421875 -1.375 -1.234375l0 1.421875l-2.375 0zm2.53125 -5.046875q0 1.5 0.484375 2.21875q0.65625 1.03125 1.765625 1.03125q0.84375 0 1.4375 -0.71875q0.59375 -0.734375 0.59375 -2.296875q0 -1.65625 -0.609375 -2.390625q-0.59375 -0.734375 -1.53125 -0.734375q-0.921875 0 -1.53125 0.71875q-0.609375 0.71875 -0.609375 2.171875zm8.380356 0.078125q0 -1.28125 0.625 -2.46875q0.625 -1.203125 1.78125 -1.828125q1.15625 -0.625 2.578125 -0.625q2.1874924 0 3.5937424 1.421875q1.40625 1.421875 1.40625 3.609375q0 2.1875 -1.421875 3.640625q-1.421875 1.4375 -3.5624924 1.4375q-1.328125 0 -2.546875 -0.59375q-1.203125 -0.609375 -1.828125 -1.765625q-0.625 -1.171875 -0.625 -2.828125zm2.625 0.125q0 1.453125 0.671875 2.21875q0.6875 0.75 1.6875 0.75q0.9999924 0 1.6718674 -0.75q0.6875 -0.765625 0.6875 -2.234375q0 -1.421875 -0.6875 -2.1875q-0.671875 -0.765625 -1.6718674 -0.765625q-1.0 0 -1.6875 0.765625q-0.671875 0.765625 -0.671875 2.203125zm13.802223 -4.828125l0 2.03125l-1.75 0l0 3.90625q0 1.1875 0.046875 1.390625q0.046875 0.1875 0.21875 0.3125q0.1875 0.125 0.4375 0.125q0.359375 0 1.03125 -0.25l0.21875 2.0q-0.890625 0.375 -2.015625 0.375q-0.703125 0 -1.265625 -0.234375q-0.546875 -0.234375 -0.8125 -0.59375q-0.25 -0.375 -0.34375 -1.0q-0.09375 -0.453125 -0.09375 -1.8125l0 -4.21875l-1.171875 0l0 -2.03125l1.171875 0l0 -1.921875l2.578125 -1.5l0 3.421875l1.75 0z" fill-rule="nonzero"/><path fill="#000000" fill-opacity="0.0" d="m112.09449 125.22835l0 49.984253" fill-rule="evenodd"/><path stroke="#000000" stroke-width="3.0" stroke-linejoin="round" stroke-linecap="butt" d="m112.09449 125.22835l0 31.984253" fill-rule="evenodd"/><path fill="#000000" stroke="#000000" stroke-width="3.0" stroke-linecap="butt" d="m107.13929 157.2126l4.9552 13.614288l4.9551926 -13.614288z" fill-rule="evenodd"/><path fill="#fff2cc" d="m312.84778 485.48032l118.96063 0l0 98.89761l-118.96063 0z" fill-rule="evenodd"/><path stroke="#000000" stroke-width="1.0" stroke-linejoin="round" stroke-linecap="butt" d="m312.84778 485.48032l118.96063 0l0 98.89761l-118.96063 0z" fill-rule="evenodd"/><path fill="#000000" d="m341.7148 536.5704l2.234375 0.71875q-0.515625 1.875 -1.71875 2.796875q-1.1875 0.90625 -3.03125 0.90625q-2.28125 0 -3.75 -1.5625q-1.46875 -1.5625 -1.46875 -4.265625q0 -2.859375 1.46875 -4.4375q1.484375 -1.59375 3.890625 -1.59375q2.09375 0 3.40625 1.25q0.78125 0.734375 1.171875 2.109375l-2.28125 0.546875q-0.203125 -0.890625 -0.859375 -1.40625q-0.640625 -0.515625 -1.5625 -0.515625q-1.265625 0 -2.0625 0.921875q-0.796875 0.90625 -0.796875 2.953125q0 2.171875 0.78125 3.09375q0.78125 0.921875 2.03125 0.921875q0.921875 0 1.578125 -0.578125q0.671875 -0.59375 0.96875 -1.859375zm3.6953125 -0.046875q0 -1.09375 0.53125 -2.109375q0.546875 -1.03125 1.53125 -1.5625q1.0 -0.546875 2.21875 -0.546875q1.875 0 3.078125 1.21875q1.203125 1.21875 1.203125 3.09375q0 1.875 -1.21875 3.125q-1.203125 1.234375 -3.046875 1.234375q-1.140625 0 -2.1875 -0.515625q-1.03125 -0.515625 -1.578125 -1.515625q-0.53125 -1.0 -0.53125 -2.421875zm2.25 0.109375q0 1.234375 0.578125 1.890625q0.59375 0.65625 1.453125 0.65625q0.859375 0 1.4375 -0.65625q0.59375 -0.65625 0.59375 -1.90625q0 -1.21875 -0.59375 -1.875q-0.578125 -0.65625 -1.4375 -0.65625q-0.859375 0 -1.453125 0.65625q-0.578125 0.65625 -0.578125 1.890625zm15.5859375 4.15625l-2.203125 0l0 -4.234375q0 -1.34375 -0.140625 -1.734375q-0.140625 -0.40625 -0.453125 -0.625q-0.3125 -0.21875 -0.765625 -0.21875q-0.5625 0 -1.015625 0.3125q-0.453125 0.3125 -0.625 0.828125q-0.171875 0.515625 -0.171875 1.90625l0 3.765625l-2.1875 0l0 -8.296875l2.03125 0l0 1.21875q1.09375 -1.40625 2.734375 -1.40625q0.734375 0 1.328125 0.265625q0.609375 0.25 0.90625 0.65625q0.3125 0.40625 0.4375 0.921875q0.125 0.515625 0.125 1.484375l0 5.15625zm1.4453125 -2.375l2.203125 -0.328125q0.140625 0.640625 0.5625 0.96875q0.4375 0.328125 1.21875 0.328125q0.84375 0 1.28125 -0.3125q0.28125 -0.21875 0.28125 -0.578125q0 -0.25 -0.15625 -0.421875q-0.15625 -0.15625 -0.734375 -0.28125q-2.65625 -0.59375 -3.359375 -1.078125q-0.984375 -0.671875 -0.984375 -1.859375q0 -1.078125 0.84375 -1.8125q0.859375 -0.734375 2.640625 -0.734375q1.703125 0 2.53125 0.5625q0.828125 0.546875 1.140625 1.625l-2.0625 0.390625q-0.140625 -0.484375 -0.515625 -0.734375q-0.359375 -0.265625 -1.046875 -0.265625q-0.875 0 -1.25 0.234375q-0.25 0.171875 -0.25 0.453125q0 0.234375 0.21875 0.390625q0.296875 0.21875 2.046875 0.625q1.765625 0.390625 2.453125 0.96875q0.6875 0.59375 0.6875 1.640625q0 1.140625 -0.953125 1.96875q-0.953125 0.8125 -2.8125 0.8125q-1.703125 0 -2.6875 -0.6875q-0.984375 -0.6875 -1.296875 -1.875zm13.4765625 -5.921875l0 1.75l-1.5 0l0 3.34375q0 1.015625 0.046875 1.1875q0.046875 0.15625 0.1875 0.265625q0.15625 0.109375 0.375 0.109375q0.3125 0 0.890625 -0.203125l0.1875 1.703125q-0.765625 0.328125 -1.734375 0.328125q-0.59375 0 -1.078125 -0.203125q-0.46875 -0.203125 -0.703125 -0.515625q-0.21875 -0.3125 -0.296875 -0.859375q-0.078125 -0.375 -0.078125 -1.546875l0 -3.609375l-1.0 0l0 -1.75l1.0 0l0 -1.65625l2.203125 -1.28125l0 2.9375l1.5 0zm3.171875 2.53125l-2.0 -0.359375q0.34375 -1.203125 1.15625 -1.78125q0.828125 -0.578125 2.4375 -0.578125q1.46875 0 2.1875 0.34375q0.71875 0.34375 1.015625 0.890625q0.296875 0.53125 0.296875 1.953125l-0.03125 2.5625q0 1.09375 0.109375 1.625q0.109375 0.515625 0.390625 1.109375l-2.171875 0q-0.078125 -0.21875 -0.203125 -0.65625q-0.0625 -0.1875 -0.078125 -0.25q-0.5625 0.546875 -1.203125 0.828125q-0.640625 0.265625 -1.375 0.265625q-1.28125 0 -2.015625 -0.6875q-0.734375 -0.703125 -0.734375 -1.765625q0 -0.703125 0.328125 -1.25q0.34375 -0.5625 0.9375 -0.84375q0.609375 -0.296875 1.75 -0.515625q1.546875 -0.296875 2.140625 -0.546875l0 -0.21875q0 -0.625 -0.3125 -0.890625q-0.3125 -0.28125 -1.1875 -0.28125q-0.578125 0 -0.90625 0.234375q-0.328125 0.234375 -0.53125 0.8125zm2.9375 1.78125q-0.421875 0.140625 -1.34375 0.34375q-0.90625 0.1875 -1.1875 0.375q-0.4375 0.296875 -0.4375 0.765625q0 0.46875 0.34375 0.8125q0.34375 0.328125 0.875 0.328125q0.59375 0 1.140625 -0.390625q0.390625 -0.296875 0.515625 -0.734375q0.09375 -0.28125 0.09375 -1.0625l0 -0.4375zm11.8671875 3.984375l-2.203125 0l0 -4.234375q0 -1.34375 -0.140625 -1.734375q-0.140625 -0.40625 -0.453125 -0.625q-0.3125 -0.21875 -0.765625 -0.21875q-0.5625 0 -1.015625 0.3125q-0.453125 0.3125 -0.625 0.828125q-0.171875 0.515625 -0.171875 1.90625l0 3.765625l-2.1875 0l0 -8.296875l2.03125 0l0 1.21875q1.09375 -1.40625 2.734375 -1.40625q0.734375 0 1.328125 0.265625q0.609375 0.25 0.90625 0.65625q0.3125 0.40625 0.4375 0.921875q0.125 0.515625 0.125 1.484375l0 5.15625zm6.0234375 -8.296875l0 1.75l-1.5 0l0 3.34375q0 1.015625 0.046875 1.1875q0.046875 0.15625 0.1875 0.265625q0.15625 0.109375 0.375 0.109375q0.3125 0 0.890625 -0.203125l0.1875 1.703125q-0.765625 0.328125 -1.734375 0.328125q-0.59375 0 -1.078125 -0.203125q-0.46875 -0.203125 -0.703125 -0.515625q-0.21875 -0.3125 -0.296875 -0.859375q-0.078125 -0.375 -0.078125 -1.546875l0 -3.609375l-1.0 0l0 -1.75l1.0 0l0 -1.65625l2.203125 -1.28125l0 2.9375l1.5 0zm0.75 5.921875l2.203125 -0.328125q0.140625 0.640625 0.5625 0.96875q0.4375 0.328125 1.21875 0.328125q0.84375 0 1.28125 -0.3125q0.28125 -0.21875 0.28125 -0.578125q0 -0.25 -0.15625 -0.421875q-0.15625 -0.15625 -0.734375 -0.28125q-2.65625 -0.59375 -3.359375 -1.078125q-0.984375 -0.671875 -0.984375 -1.859375q0 -1.078125 0.84375 -1.8125q0.859375 -0.734375 2.640625 -0.734375q1.703125 0 2.53125 0.5625q0.828125 0.546875 1.140625 1.625l-2.0625 0.390625q-0.140625 -0.484375 -0.515625 -0.734375q-0.359375 -0.265625 -1.046875 -0.265625q-0.875 0 -1.25 0.234375q-0.25 0.171875 -0.25 0.453125q0 0.234375 0.21875 0.390625q0.296875 0.21875 2.046875 0.625q1.765625 0.390625 2.453125 0.96875q0.6875 0.59375 0.6875 1.640625q0 1.140625 -0.953125 1.96875q-0.953125 0.8125 -2.8125 0.8125q-1.703125 0 -2.6875 -0.6875q-0.984375 -0.6875 -1.296875 -1.875z" fill-rule="nonzero"/><path fill="#d9d2e9" d="m398.5958 319.66928l118.96066 0l0 98.897644l-118.96066 0z" fill-rule="evenodd"/><path stroke="#000000" stroke-width="1.0" stroke-linejoin="round" stroke-linecap="butt" d="m398.5958 319.66928l118.96066 0l0 98.897644l-118.96066 0z" fill-rule="evenodd"/><path fill="#000000" d="m411.65094 376.03812l0 -13.359375l2.6875 0l0 13.359375l-2.6875 0zm4.7145386 -6.59375q0 -2.046875 0.609375 -3.421875q0.453125 -1.03125 1.234375 -1.828125q0.796875 -0.8125 1.734375 -1.203125q1.25 -0.53125 2.875 -0.53125q2.953125 0 4.71875 1.828125q1.78125 1.828125 1.78125 5.09375q0 3.234375 -1.765625 5.0625q-1.75 1.828125 -4.6875 1.828125q-2.984375 0 -4.75 -1.8125q-1.75 -1.828125 -1.75 -5.015625zm2.78125 -0.09375q0 2.265625 1.046875 3.4375q1.046875 1.171875 2.65625 1.171875q1.609375 0 2.640625 -1.15625q1.046875 -1.171875 1.046875 -3.484375q0 -2.296875 -1.015625 -3.421875q-1.0 -1.140625 -2.671875 -1.140625q-1.671875 0 -2.6875 1.15625q-1.015625 1.140625 -1.015625 3.4375zm26.007233 1.78125l2.609375 0.828125q-0.59375 2.1875 -2.0 3.25q-1.390625 1.0625 -3.546875 1.0625q-2.65625 0 -4.375 -1.8125q-1.703125 -1.828125 -1.703125 -4.984375q0 -3.328125 1.71875 -5.171875q1.71875 -1.84375 4.515625 -1.84375q2.453125 0 3.984375 1.4375q0.921875 0.859375 1.375 2.46875l-2.671875 0.640625q-0.234375 -1.046875 -0.984375 -1.640625q-0.75 -0.609375 -1.828125 -0.609375q-1.484375 0 -2.421875 1.078125q-0.921875 1.0625 -0.921875 3.4375q0 2.53125 0.90625 3.609375q0.921875 1.078125 2.375 1.078125q1.078125 0 1.84375 -0.671875q0.78125 -0.6875 1.125 -2.15625zm4.9104614 4.90625l0 -13.359375l2.5625 0l0 13.359375l-2.5625 0zm7.0895386 -6.71875l-2.328125 -0.421875q0.40625 -1.40625 1.359375 -2.078125q0.953125 -0.671875 2.84375 -0.671875q1.703125 0 2.546875 0.40625q0.84375 0.40625 1.171875 1.03125q0.34375 0.625 0.34375 2.28125l-0.015625 3.0q0 1.265625 0.109375 1.875q0.125 0.609375 0.46875 1.296875l-2.53125 0q-0.109375 -0.25 -0.25 -0.75q-0.0625 -0.234375 -0.09375 -0.3125q-0.65625 0.640625 -1.40625 0.96875q-0.734375 0.3125 -1.59375 0.3125q-1.484375 0 -2.34375 -0.8125q-0.859375 -0.8125 -0.859375 -2.046875q0 -0.828125 0.390625 -1.46875q0.390625 -0.640625 1.09375 -0.96875q0.703125 -0.34375 2.03125 -0.609375q1.796875 -0.328125 2.484375 -0.625l0 -0.25q0 -0.75 -0.359375 -1.0625q-0.359375 -0.3125 -1.375 -0.3125q-0.6875 0 -1.078125 0.28125q-0.375 0.265625 -0.609375 0.9375zm3.421875 2.078125q-0.484375 0.15625 -1.5625 0.390625q-1.0625 0.21875 -1.390625 0.4375q-0.5 0.359375 -0.5 0.90625q0 0.53125 0.40625 0.9375q0.40625 0.390625 1.015625 0.390625q0.703125 0 1.328125 -0.46875q0.46875 -0.34375 0.609375 -0.84375q0.09375 -0.328125 0.09375 -1.25l0 -0.5zm4.1413574 1.875l2.5625 -0.390625q0.171875 0.75 0.671875 1.140625q0.5 0.390625 1.40625 0.390625q0.984375 0 1.484375 -0.375q0.34375 -0.25 0.34375 -0.671875q0 -0.296875 -0.1875 -0.484375q-0.1875 -0.1875 -0.859375 -0.34375q-3.09375 -0.6875 -3.921875 -1.25q-1.140625 -0.78125 -1.140625 -2.171875q0 -1.265625 0.984375 -2.109375q1.0 -0.859375 3.078125 -0.859375q1.984375 0 2.953125 0.65625q0.96875 0.640625 1.328125 1.90625l-2.40625 0.4375q-0.15625 -0.5625 -0.59375 -0.859375q-0.421875 -0.296875 -1.234375 -0.296875q-1.0 0 -1.4375 0.28125q-0.296875 0.203125 -0.296875 0.515625q0 0.265625 0.25 0.46875q0.34375 0.25 2.390625 0.71875q2.046875 0.453125 2.859375 1.140625q0.796875 0.671875 0.796875 1.890625q0 1.34375 -1.109375 2.296875q-1.109375 0.953125 -3.28125 0.953125q-1.984375 0 -3.140625 -0.796875q-1.140625 -0.8125 -1.5 -2.1875zm10.375702 0l2.5625 -0.390625q0.171875 0.75 0.671875 1.140625q0.5 0.390625 1.40625 0.390625q0.984375 0 1.484375 -0.375q0.34375 -0.25 0.34375 -0.671875q0 -0.296875 -0.1875 -0.484375q-0.1875 -0.1875 -0.859375 -0.34375q-3.09375 -0.6875 -3.921875 -1.25q-1.140625 -0.78125 -1.140625 -2.171875q0 -1.265625 0.984375 -2.109375q1.0 -0.859375 3.078125 -0.859375q1.984375 0 2.953125 0.65625q0.96875 0.640625 1.328125 1.90625l-2.40625 0.4375q-0.15625 -0.5625 -0.59375 -0.859375q-0.421875 -0.296875 -1.234375 -0.296875q-1.0 0 -1.4375 0.28125q-0.296875 0.203125 -0.296875 0.515625q0 0.265625 0.25 0.46875q0.34375 0.25 2.390625 0.71875q2.046875 0.453125 2.859375 1.140625q0.796875 0.671875 0.796875 1.890625q0 1.34375 -1.109375 2.296875q-1.109375 0.953125 -3.28125 0.953125q-1.984375 0 -3.140625 -0.796875q-1.140625 -0.8125 -1.5 -2.1875zm16.875732 -0.3125l2.546875 0.421875q-0.484375 1.40625 -1.546875 2.140625q-1.0625 0.734375 -2.65625 0.734375q-2.515625 0 -3.734375 -1.65625q-0.953125 -1.3125 -0.953125 -3.328125q0 -2.40625 1.25 -3.765625q1.265625 -1.359375 3.1875 -1.359375q2.15625 0 3.40625 1.421875q1.25 1.421875 1.1875 4.375l-6.40625 0q0.03125 1.140625 0.609375 1.78125q0.59375 0.625 1.484375 0.625q0.59375 0 1.0 -0.328125q0.421875 -0.328125 0.625 -1.0625zm0.15625 -2.59375q-0.03125 -1.109375 -0.578125 -1.6875q-0.546875 -0.578125 -1.328125 -0.578125q-0.84375 0 -1.390625 0.609375q-0.546875 0.609375 -0.53125 1.65625l3.828125 0zm3.719452 2.90625l2.5625 -0.390625q0.171875 0.75 0.671875 1.140625q0.5 0.390625 1.40625 0.390625q0.984375 0 1.484375 -0.375q0.34375 -0.25 0.34375 -0.671875q0 -0.296875 -0.1875 -0.484375q-0.1875 -0.1875 -0.859375 -0.34375q-3.09375 -0.6875 -3.921875 -1.25q-1.140625 -0.78125 -1.140625 -2.171875q0 -1.265625 0.984375 -2.109375q1.0 -0.859375 3.078125 -0.859375q1.984375 0 2.953125 0.65625q0.96875 0.640625 1.328125 1.90625l-2.40625 0.4375q-0.15625 -0.5625 -0.59375 -0.859375q-0.421875 -0.296875 -1.234375 -0.296875q-1.0 0 -1.4375 0.28125q-0.296875 0.203125 -0.296875 0.515625q0 0.265625 0.25 0.46875q0.34375 0.25 2.390625 0.71875q2.046875 0.453125 2.859375 1.140625q0.796875 0.671875 0.796875 1.890625q0 1.34375 -1.109375 2.296875q-1.109375 0.953125 -3.28125 0.953125q-1.984375 0 -3.140625 -0.796875q-1.140625 -0.8125 -1.5 -2.1875z" fill-rule="nonzero"/><path fill="#000000" fill-opacity="0.0" d="m398.5958 369.1181l-52.53543 0" fill-rule="evenodd"/><path stroke="#000000" stroke-width="3.0" stroke-linejoin="round" stroke-linecap="butt" d="m380.5958 369.1181l-34.53543 0" fill-rule="evenodd"/><path fill="#000000" stroke="#000000" stroke-width="3.0" stroke-linecap="butt" d="m380.5958 374.0733l13.614288 -4.9552l-13.614288 -4.9552z" fill-rule="evenodd"/><path fill="#000000" fill-opacity="0.0" d="m112.09449 274.11023l174.48819 27.338593" fill-rule="evenodd"/><path stroke="#000000" stroke-width="3.0" stroke-linejoin="round" stroke-linecap="butt" d="m112.09449 274.11023l156.70514 24.552368" fill-rule="evenodd"/><path fill="#000000" stroke="#000000" stroke-width="3.0" stroke-linecap="butt" d="m268.03262 303.55807l14.217194 -2.7881165l-12.6831665 -7.002838z" fill-rule="evenodd"/><path fill="#cfe2f3" d="m227.09186 301.44882l118.96063 0l0 135.3386l-118.96063 0z" fill-rule="evenodd"/><path stroke="#000000" stroke-width="1.0" stroke-linejoin="round" stroke-linecap="butt" d="m227.09186 301.44882l118.96063 0l0 135.3386l-118.96063 0z" fill-rule="evenodd"/><path fill="#000000" d="m240.01749 352.24374l2.25 -0.21875q0.203125 1.140625 0.828125 1.671875q0.625 0.53125 1.671875 0.53125q1.125 0 1.6875 -0.46875q0.5625 -0.484375 0.5625 -1.109375q0 -0.40625 -0.234375 -0.6875q-0.234375 -0.296875 -0.828125 -0.5q-0.40625 -0.140625 -1.859375 -0.5q-1.859375 -0.46875 -2.609375 -1.140625q-1.046875 -0.9375 -1.046875 -2.296875q0 -0.875 0.484375 -1.640625q0.5 -0.765625 1.4375 -1.15625q0.9375 -0.40625 2.25 -0.40625q2.15625 0 3.25 0.953125q1.09375 0.9375 1.140625 2.515625l-2.3125 0.109375q-0.140625 -0.890625 -0.640625 -1.265625q-0.484375 -0.390625 -1.453125 -0.390625q-1.015625 0 -1.578125 0.40625q-0.375 0.265625 -0.375 0.71875q0 0.40625 0.34375 0.6875q0.4375 0.375 2.125 0.78125q1.6875 0.390625 2.5 0.8125q0.8125 0.421875 1.265625 1.171875q0.453125 0.734375 0.453125 1.8125q0 0.984375 -0.546875 1.84375q-0.546875 0.859375 -1.546875 1.28125q-1.0 0.421875 -2.484375 0.421875q-2.171875 0 -3.34375 -1.0q-1.15625 -1.015625 -1.390625 -2.9375zm16.703125 3.734375l0 -1.25q-0.453125 0.671875 -1.1875 1.0625q-0.734375 0.375 -1.5625 0.375q-0.828125 0 -1.5 -0.359375q-0.65625 -0.375 -0.953125 -1.03125q-0.296875 -0.671875 -0.296875 -1.84375l0 -5.25l2.1875 0l0 3.8125q0 1.75 0.125 2.140625q0.125 0.390625 0.4375 0.625q0.328125 0.234375 0.8125 0.234375q0.5625 0 1.0 -0.3125q0.453125 -0.3125 0.609375 -0.765625q0.171875 -0.453125 0.171875 -2.234375l0 -3.5l2.203125 0l0 8.296875l-2.046875 0zm4.2265625 0l0 -11.453125l2.1875 0l0 4.125q1.015625 -1.15625 2.40625 -1.15625q1.515625 0 2.5 1.09375q1.0 1.09375 1.0 3.15625q0 2.125 -1.015625 3.28125q-1.0 1.140625 -2.453125 1.140625q-0.703125 0 -1.40625 -0.359375q-0.6875 -0.359375 -1.1875 -1.046875l0 1.21875l-2.03125 0zm2.171875 -4.328125q0 1.28125 0.40625 1.90625q0.578125 0.875 1.515625 0.875q0.734375 0 1.234375 -0.625q0.515625 -0.625 0.515625 -1.953125q0 -1.421875 -0.515625 -2.046875q-0.515625 -0.640625 -1.3125 -0.640625q-0.796875 0 -1.328125 0.625q-0.515625 0.609375 -0.515625 1.859375zm6.9140625 1.953125l2.203125 -0.328125q0.140625 0.640625 0.5625 0.96875q0.4375 0.328125 1.21875 0.328125q0.84375 0 1.28125 -0.3125q0.28125 -0.21875 0.28125 -0.578125q0 -0.25 -0.15625 -0.421875q-0.15625 -0.15625 -0.734375 -0.28125q-2.65625 -0.59375 -3.359375 -1.078125q-0.984375 -0.671875 -0.984375 -1.859375q0 -1.078125 0.84375 -1.8125q0.859375 -0.734375 2.640625 -0.734375q1.703125 0 2.53125 0.5625q0.828125 0.546875 1.140625 1.625l-2.0625 0.390625q-0.140625 -0.484375 -0.515625 -0.734375q-0.359375 -0.265625 -1.046875 -0.265625q-0.875 0 -1.25 0.234375q-0.25 0.171875 -0.25 0.453125q0 0.234375 0.21875 0.390625q0.296875 0.21875 2.046875 0.625q1.765625 0.390625 2.453125 0.96875q0.6875 0.59375 0.6875 1.640625q0 1.140625 -0.953125 1.96875q-0.953125 0.8125 -2.8125 0.8125q-1.703125 0 -2.6875 -0.6875q-0.984375 -0.6875 -1.296875 -1.875zm8.6328125 -5.921875l2.34375 0l1.984375 5.890625l1.9375 -5.890625l2.265625 0l-2.921875 7.984375l-0.53125 1.453125q-0.28125 0.71875 -0.546875 1.09375q-0.265625 0.390625 -0.609375 0.625q-0.328125 0.25 -0.828125 0.375q-0.5 0.140625 -1.125 0.140625q-0.625 0 -1.234375 -0.140625l-0.203125 -1.71875q0.515625 0.109375 0.9375 0.109375q0.765625 0 1.125 -0.453125q0.375 -0.453125 0.5625 -1.140625l-3.15625 -8.328125zm9.1640625 5.921875l2.203125 -0.328125q0.140625 0.640625 0.5625 0.96875q0.4375 0.328125 1.21875 0.328125q0.84375 0 1.28125 -0.3125q0.28125 -0.21875 0.28125 -0.578125q0 -0.25 -0.15625 -0.421875q-0.15625 -0.15625 -0.734375 -0.28125q-2.65625 -0.59375 -3.359375 -1.078125q-0.984375 -0.671875 -0.984375 -1.859375q0 -1.078125 0.84375 -1.8125q0.859375 -0.734375 2.640625 -0.734375q1.703125 0 2.53125 0.5625q0.828125 0.546875 1.140625 1.625l-2.0625 0.390625q-0.140625 -0.484375 -0.515625 -0.734375q-0.359375 -0.265625 -1.046875 -0.265625q-0.875 0 -1.25 0.234375q-0.25 0.171875 -0.25 0.453125q0 0.234375 0.21875 0.390625q0.296875 0.21875 2.046875 0.625q1.765625 0.390625 2.453125 0.96875q0.6875 0.59375 0.6875 1.640625q0 1.140625 -0.953125 1.96875q-0.953125 0.8125 -2.8125 0.8125q-1.703125 0 -2.6875 -0.6875q-0.984375 -0.6875 -1.296875 -1.875zm13.4765625 -5.921875l0 1.75l-1.5 0l0 3.34375q0 1.015625 0.046875 1.1875q0.046875 0.15625 0.1875 0.265625q0.15625 0.109375 0.375 0.109375q0.3125 0 0.890625 -0.203125l0.1875 1.703125q-0.765625 0.328125 -1.734375 0.328125q-0.59375 0 -1.078125 -0.203125q-0.46875 -0.203125 -0.703125 -0.515625q-0.21875 -0.3125 -0.296875 -0.859375q-0.078125 -0.375 -0.078125 -1.546875l0 -3.609375l-1.0 0l0 -1.75l1.0 0l0 -1.65625l2.203125 -1.28125l0 2.9375l1.5 0zm6.328125 5.65625l2.1875 0.359375q-0.421875 1.203125 -1.328125 1.84375q-0.90625 0.625 -2.28125 0.625q-2.15625 0 -3.203125 -1.421875q-0.8125 -1.125 -0.8125 -2.859375q0 -2.0625 1.078125 -3.21875q1.078125 -1.171875 2.71875 -1.171875q1.859375 0 2.921875 1.21875q1.078125 1.21875 1.03125 3.75l-5.5 0q0.015625 0.96875 0.515625 1.515625q0.515625 0.546875 1.28125 0.546875q0.515625 0 0.859375 -0.28125q0.359375 -0.28125 0.53125 -0.90625zm0.125 -2.21875q-0.015625 -0.953125 -0.484375 -1.453125q-0.46875 -0.5 -1.140625 -0.5q-0.71875 0 -1.1875 0.53125q-0.46875 0.515625 -0.46875 1.421875l3.28125 0zm3.8046875 -3.4375l2.03125 0l0 1.125q1.078125 -1.3125 2.578125 -1.3125q0.796875 0 1.375 0.328125q0.59375 0.328125 0.96875 0.984375q0.546875 -0.65625 1.171875 -0.984375q0.640625 -0.328125 1.359375 -0.328125q0.921875 0 1.546875 0.375q0.640625 0.359375 0.953125 1.078125q0.21875 0.53125 0.21875 1.71875l0 5.3125l-2.1875 0l0 -4.75q0 -1.234375 -0.234375 -1.59375q-0.296875 -0.46875 -0.9375 -0.46875q-0.453125 0 -0.859375 0.28125q-0.40625 0.28125 -0.59375 0.828125q-0.171875 0.546875 -0.171875 1.71875l0 3.984375l-2.203125 0l0 -4.546875q0 -1.21875 -0.125 -1.5625q-0.109375 -0.359375 -0.359375 -0.53125q-0.234375 -0.171875 -0.65625 -0.171875q-0.515625 0 -0.921875 0.28125q-0.40625 0.265625 -0.578125 0.78125q-0.171875 0.515625 -0.171875 1.71875l0 4.03125l-2.203125 0l0 -8.296875zm13.6171875 5.921875l2.203125 -0.328125q0.140625 0.640625 0.5625 0.96875q0.4375 0.328125 1.21875 0.328125q0.84375 0 1.28125 -0.3125q0.28125 -0.21875 0.28125 -0.578125q0 -0.25 -0.15625 -0.421875q-0.15625 -0.15625 -0.734375 -0.28125q-2.65625 -0.59375 -3.359375 -1.078125q-0.984375 -0.671875 -0.984375 -1.859375q0 -1.078125 0.84375 -1.8125q0.859375 -0.734375 2.640625 -0.734375q1.703125 0 2.53125 0.5625q0.828125 0.546875 1.140625 1.625l-2.0625 0.390625q-0.140625 -0.484375 -0.515625 -0.734375q-0.359375 -0.265625 -1.046875 -0.265625q-0.875 0 -1.25 0.234375q-0.25 0.171875 -0.25 0.453125q0 0.234375 0.21875 0.390625q0.296875 0.21875 2.046875 0.625q1.765625 0.390625 2.453125 0.96875q0.6875 0.59375 0.6875 1.640625q0 1.140625 -0.953125 1.96875q-0.953125 0.8125 -2.8125 0.8125q-1.703125 0 -2.6875 -0.6875q-0.984375 -0.6875 -1.296875 -1.875z" fill-rule="nonzero"/><path fill="#d9ead3" d="m227.09186 386.29922l118.96063 0l0 36.440918l-118.96063 0z" fill-rule="evenodd"/><path stroke="#000000" stroke-width="1.0" stroke-linejoin="round" stroke-linecap="butt" d="m227.09186 386.29922l118.96063 0l0 36.440918l-118.96063 0z" fill-rule="evenodd"/><path fill="#000000" d="m251.50967 406.16092l2.234375 0.71875q-0.515625 1.875 -1.71875 2.796875q-1.1875 0.90625 -3.03125 0.90625q-2.28125 0 -3.75 -1.5625q-1.46875 -1.5625 -1.46875 -4.265625q0 -2.859375 1.46875 -4.4375q1.484375 -1.59375 3.890625 -1.59375q2.09375 0 3.40625 1.25q0.78125 0.734375 1.171875 2.109375l-2.28125 0.546875q-0.203125 -0.890625 -0.859375 -1.40625q-0.640625 -0.515625 -1.5625 -0.515625q-1.265625 0 -2.0625 0.921875q-0.796875 0.90625 -0.796875 2.953125q0 2.171875 0.78125 3.09375q0.78125 0.921875 2.03125 0.921875q0.921875 0 1.578125 -0.578125q0.671875 -0.59375 0.96875 -1.859375zm3.6953125 -0.046875q0 -1.09375 0.53125 -2.109375q0.546875 -1.03125 1.53125 -1.5625q1.0 -0.546875 2.21875 -0.546875q1.875 0 3.078125 1.21875q1.203125 1.21875 1.203125 3.09375q0 1.875 -1.21875 3.125q-1.203125 1.234375 -3.046875 1.234375q-1.140625 0 -2.1875 -0.515625q-1.03125 -0.515625 -1.578125 -1.515625q-0.53125 -1.0 -0.53125 -2.421875zm2.25 0.109375q0 1.234375 0.578125 1.890625q0.59375 0.65625 1.453125 0.65625q0.859375 0 1.4375 -0.65625q0.59375 -0.65625 0.59375 -1.90625q0 -1.21875 -0.59375 -1.875q-0.578125 -0.65625 -1.4375 -0.65625q-0.859375 0 -1.453125 0.65625q-0.578125 0.65625 -0.578125 1.890625zm7.8671875 -4.140625l2.03125 0l0 1.125q1.078125 -1.3125 2.578125 -1.3125q0.796875 0 1.375 0.328125q0.59375 0.328125 0.96875 0.984375q0.546875 -0.65625 1.171875 -0.984375q0.640625 -0.328125 1.359375 -0.328125q0.921875 0 1.546875 0.375q0.640625 0.359375 0.953125 1.078125q0.21875 0.53125 0.21875 1.71875l0 5.3125l-2.1875 0l0 -4.75q0 -1.234375 -0.234375 -1.59375q-0.296875 -0.46875 -0.9375 -0.46875q-0.453125 0 -0.859375 0.28125q-0.40625 0.28125 -0.59375 0.828125q-0.171875 0.546875 -0.171875 1.71875l0 3.984375l-2.203125 0l0 -4.546875q0 -1.21875 -0.125 -1.5625q-0.109375 -0.359375 -0.359375 -0.53125q-0.234375 -0.171875 -0.65625 -0.171875q-0.515625 0 -0.921875 0.28125q-0.40625 0.265625 -0.578125 0.78125q-0.171875 0.515625 -0.171875 1.71875l0 4.03125l-2.203125 0l0 -8.296875zm14.2265625 0l2.03125 0l0 1.125q1.078125 -1.3125 2.578125 -1.3125q0.796875 0 1.375 0.328125q0.59375 0.328125 0.96875 0.984375q0.546875 -0.65625 1.171875 -0.984375q0.640625 -0.328125 1.359375 -0.328125q0.921875 0 1.546875 0.375q0.640625 0.359375 0.953125 1.078125q0.21875 0.53125 0.21875 1.71875l0 5.3125l-2.1875 0l0 -4.75q0 -1.234375 -0.234375 -1.59375q-0.296875 -0.46875 -0.9375 -0.46875q-0.453125 0 -0.859375 0.28125q-0.40625 0.28125 -0.59375 0.828125q-0.171875 0.546875 -0.171875 1.71875l0 3.984375l-2.203125 0l0 -4.546875q0 -1.21875 -0.125 -1.5625q-0.109375 -0.359375 -0.359375 -0.53125q-0.234375 -0.171875 -0.65625 -0.171875q-0.515625 0 -0.921875 0.28125q-0.40625 0.265625 -0.578125 0.78125q-0.171875 0.515625 -0.171875 1.71875l0 4.03125l-2.203125 0l0 -8.296875zm16.039062 2.53125l-2.0 -0.359375q0.34375 -1.203125 1.15625 -1.78125q0.828125 -0.578125 2.4375 -0.578125q1.46875 0 2.1875 0.34375q0.71875 0.34375 1.015625 0.890625q0.296875 0.53125 0.296875 1.953125l-0.03125 2.5625q0 1.09375 0.109375 1.625q0.109375 0.515625 0.390625 1.109375l-2.171875 0q-0.078125 -0.21875 -0.203125 -0.65625q-0.0625 -0.1875 -0.078125 -0.25q-0.5625 0.546875 -1.203125 0.828125q-0.640625 0.265625 -1.375 0.265625q-1.28125 0 -2.015625 -0.6875q-0.734375 -0.703125 -0.734375 -1.765625q0 -0.703125 0.328125 -1.25q0.34375 -0.5625 0.9375 -0.84375q0.609375 -0.296875 1.75 -0.515625q1.546875 -0.296875 2.140625 -0.546875l0 -0.21875q0 -0.625 -0.3125 -0.890625q-0.3125 -0.28125 -1.1875 -0.28125q-0.578125 0 -0.90625 0.234375q-0.328125 0.234375 -0.53125 0.8125zm2.9375 1.78125q-0.421875 0.140625 -1.34375 0.34375q-0.90625 0.1875 -1.1875 0.375q-0.4375 0.296875 -0.4375 0.765625q0 0.46875 0.34375 0.8125q0.34375 0.328125 0.875 0.328125q0.59375 0 1.140625 -0.390625q0.390625 -0.296875 0.515625 -0.734375q0.09375 -0.28125 0.09375 -1.0625l0 -0.4375zm11.8671875 3.984375l-2.203125 0l0 -4.234375q0 -1.34375 -0.140625 -1.734375q-0.140625 -0.40625 -0.453125 -0.625q-0.3125 -0.21875 -0.765625 -0.21875q-0.5625 0 -1.015625 0.3125q-0.453125 0.3125 -0.625 0.828125q-0.171875 0.515625 -0.171875 1.90625l0 3.765625l-2.1875 0l0 -8.296875l2.03125 0l0 1.21875q1.09375 -1.40625 2.734375 -1.40625q0.734375 0 1.328125 0.265625q0.609375 0.25 0.90625 0.65625q0.3125 0.40625 0.4375 0.921875q0.125 0.515625 0.125 1.484375l0 5.15625zm9.8359375 0l-2.046875 0l0 -1.21875q-0.5 0.703125 -1.203125 1.0625q-0.6875 0.34375 -1.390625 0.34375q-1.421875 0 -2.453125 -1.15625q-1.015625 -1.15625 -1.015625 -3.21875q0 -2.109375 0.984375 -3.203125q1.0 -1.09375 2.515625 -1.09375q1.390625 0 2.40625 1.15625l0 -4.125l2.203125 0l0 11.453125zm-5.859375 -4.328125q0 1.328125 0.359375 1.921875q0.53125 0.859375 1.484375 0.859375q0.765625 0 1.296875 -0.640625q0.53125 -0.65625 0.53125 -1.9375q0 -1.421875 -0.515625 -2.046875q-0.515625 -0.640625 -1.328125 -0.640625q-0.78125 0 -1.3125 0.625q-0.515625 0.625 -0.515625 1.859375zm7.2421875 1.953125l2.203125 -0.328125q0.140625 0.640625 0.5625 0.96875q0.4375 0.328125 1.21875 0.328125q0.84375 0 1.28125 -0.3125q0.28125 -0.21875 0.28125 -0.578125q0 -0.25 -0.15625 -0.421875q-0.15625 -0.15625 -0.734375 -0.28125q-2.65625 -0.59375 -3.359375 -1.078125q-0.984375 -0.671875 -0.984375 -1.859375q0 -1.078125 0.84375 -1.8125q0.859375 -0.734375 2.640625 -0.734375q1.703125 0 2.53125 0.5625q0.828125 0.546875 1.140625 1.625l-2.0625 0.390625q-0.140625 -0.484375 -0.515625 -0.734375q-0.359375 -0.265625 -1.046875 -0.265625q-0.875 0 -1.25 0.234375q-0.25 0.171875 -0.25 0.453125q0 0.234375 0.21875 0.390625q0.296875 0.21875 2.046875 0.625q1.765625 0.390625 2.453125 0.96875q0.6875 0.59375 0.6875 1.640625q0 1.140625 -0.953125 1.96875q-0.953125 0.8125 -2.8125 0.8125q-1.703125 0 -2.6875 -0.6875q-0.984375 -0.6875 -1.296875 -1.875z" fill-rule="nonzero"/><path fill="#000000" fill-opacity="0.0" d="m112.09449 274.11023l114.99212 130.4252" fill-rule="evenodd"/><path stroke="#000000" stroke-width="3.0" stroke-linejoin="round" stroke-linecap="butt" d="m112.09449 274.11023l103.08811 116.92355" fill-rule="evenodd"/><path fill="#000000" stroke="#000000" stroke-width="3.0" stroke-linecap="butt" d="m211.46574 394.31082l12.720459 6.9349365l-5.286743 -13.489014z" fill-rule="evenodd"/><path fill="#d9ead3" d="m52.614174 485.48032l118.960625 0l0 98.89761l-118.960625 0z" fill-rule="evenodd"/><path stroke="#000000" stroke-width="1.0" stroke-linejoin="round" stroke-linecap="butt" d="m52.614174 485.48032l118.960625 0l0 98.89761l-118.960625 0z" fill-rule="evenodd"/><path fill="#000000" d="m75.58281 515.50665l2.421875 0.765625q-0.5625 2.03125 -1.859375 3.03125q-1.296875 0.984375 -3.296875 0.984375q-2.46875 0 -4.0625 -1.6875q-1.578125 -1.703125 -1.578125 -4.625q0 -3.0937805 1.59375 -4.7969055q1.59375 -1.71875 4.203125 -1.71875q2.28125 0 3.703125 1.34375q0.84375 0.796875 1.265625 2.28125l-2.484375 0.59375q-0.21875 -0.96875 -0.921875 -1.515625q-0.6875 -0.5625 -1.6875 -0.5625q-1.375 0 -2.234375 0.984375q-0.859375 0.984375 -0.859375 3.2031555q0 2.359375 0.84375 3.359375q0.84375 1.0 2.203125 1.0q1.0 0 1.71875 -0.640625q0.71875 -0.640625 1.03125 -2.0zm3.9981995 -0.0625q0 -1.171875 0.578125 -2.28125q0.59375 -1.109375 1.65625 -1.6875305q1.078125 -0.59375 2.40625 -0.59375q2.03125 0 3.328125 1.3281555q1.3125 1.3125 1.3125 3.34375q0 2.03125 -1.328125 3.375q-1.3125 1.34375 -3.296875 1.34375q-1.234375 0 -2.359375 -0.546875q-1.125 -0.5625 -1.71875 -1.640625q-0.578125 -1.09375 -0.578125 -2.640625zm2.4375 0.125q0 1.34375 0.640625 2.0625q0.640625 0.703125 1.5625 0.703125q0.9375 0 1.5625 -0.703125q0.625 -0.71875 0.625 -2.078125q0 -1.3125 -0.625 -2.015625q-0.625 -0.71875 -1.5625 -0.71875q-0.921875 0 -1.5625 0.71875q-0.640625 0.703125 -0.640625 2.03125zm8.522217 -4.4844055l2.1875 0l0 1.2187805q1.1875 -1.4219055 2.8125 -1.4219055q0.859375 0 1.484375 0.359375q0.640625 0.34375 1.046875 1.0625305q0.59375 -0.7187805 1.28125 -1.0625305q0.6875 -0.359375 1.46875 -0.359375q0.984375 0 1.671875 0.40625q0.6875 0.390625 1.015625 1.1719055q0.25 0.578125 0.25 1.859375l0 5.75l-2.375 0l0 -5.140625q0 -1.328125 -0.25 -1.71875q-0.328125 -0.515625 -1.015625 -0.515625q-0.5 0 -0.9375 0.3125q-0.4375 0.296875 -0.640625 0.890625q-0.1875 0.59375 -0.1875 1.859375l0 4.3125l-2.375 0l0 -4.921875q0 -1.3125 -0.125 -1.6875q-0.125 -0.390625 -0.390625 -0.578125q-0.265625 -0.1875 -0.734375 -0.1875q-0.546875 0 -0.984375 0.296875q-0.4375 0.296875 -0.640625 0.859375q-0.1875 0.5625 -0.1875 1.859375l0 4.359375l-2.375 0l0 -8.9844055zm15.516861 0l2.21875 0l0 1.3125305q0.4375 -0.6719055 1.171875 -1.0937805q0.734375 -0.421875 1.625 -0.421875q1.578125 0 2.65625 1.2344055q1.09375 1.21875 1.09375 3.40625q0 2.25 -1.109375 3.5q-1.09375 1.25 -2.65625 1.25q-0.734375 0 -1.34375 -0.296875q-0.609375 -0.296875 -1.28125 -1.015625l0 4.53125l-2.375 0l0 -12.4062805zm2.359375 4.3437805q0 1.515625 0.59375 2.234375q0.609375 0.71875 1.46875 0.71875q0.828125 0 1.375 -0.65625q0.546875 -0.671875 0.546875 -2.1875q0 -1.40625 -0.5625 -2.09375q-0.5625 -0.6875 -1.40625 -0.6875q-0.875 0 -1.453125 0.671875q-0.5625 0.671875 -0.5625 2.0zm7.740967 0.015625q0 -1.171875 0.578125 -2.28125q0.59375 -1.109375 1.65625 -1.6875305q1.078125 -0.59375 2.40625 -0.59375q2.03125 0 3.328125 1.3281555q1.3125 1.3125 1.3125 3.34375q0 2.03125 -1.328125 3.375q-1.3125 1.34375 -3.296875 1.34375q-1.234375 0 -2.359375 -0.546875q-1.125 -0.5625 -1.71875 -1.640625q-0.578125 -1.09375 -0.578125 -2.640625zm2.4375 0.125q0 1.34375 0.640625 2.0625q0.640625 0.703125 1.5625 0.703125q0.9375 0 1.5625 -0.703125q0.625 -0.71875 0.625 -2.078125q0 -1.3125 -0.625 -2.015625q-0.625 -0.71875 -1.5625 -0.71875q-0.921875 0 -1.5625 0.71875q-0.640625 0.703125 -0.640625 2.03125zm14.615967 4.5l0 -1.34375q-0.484375 0.71875 -1.296875 1.140625q-0.796875 0.40625 -1.671875 0.40625q-0.90625 0 -1.625 -0.390625q-0.71875 -0.40625 -1.046875 -1.125q-0.328125 -0.71875 -0.328125 -1.984375l0 -5.6875305l2.390625 0l0 4.1250305q0 1.890625 0.125 2.328125q0.125 0.421875 0.46875 0.671875q0.359375 0.25 0.890625 0.25q0.609375 0 1.09375 -0.328125q0.484375 -0.34375 0.65625 -0.828125q0.171875 -0.5 0.171875 -2.421875l0 -3.7969055l2.375 0l0 8.9844055l-2.203125 0zm12.850342 0l-2.375 0l0 -4.578125q0 -1.46875 -0.15625 -1.890625q-0.15625 -0.421875 -0.5 -0.65625q-0.34375 -0.25 -0.828125 -0.25q-0.609375 0 -1.109375 0.34375q-0.484375 0.34375 -0.671875 0.90625q-0.171875 0.546875 -0.171875 2.0625l0 4.0625l-2.375 0l0 -8.9844055l2.203125 0l0 1.3125305q1.171875 -1.5156555 2.953125 -1.5156555q0.796875 0 1.4375 0.28125q0.65625 0.28125 0.984375 0.734375q0.34375 0.43753052 0.46875 1.0000305q0.140625 0.546875 0.140625 1.59375l0 5.578125zm10.647217 0l-2.203125 0l0 -1.3125q-0.5625 0.765625 -1.3125 1.140625q-0.734375 0.375 -1.5 0.375q-1.546875 0 -2.65625 -1.25q-1.109375 -1.25 -1.109375 -3.484375q0 -2.28125 1.078125 -3.46875q1.078125 -1.1875305 2.71875 -1.1875305q1.5 0 2.609375 1.2500305l0 -4.4687805l2.375 0l0 12.4062805zm-6.34375 -4.6875q0 1.4375 0.390625 2.078125q0.578125 0.9375 1.609375 0.9375q0.828125 0 1.390625 -0.703125q0.578125 -0.703125 0.578125 -2.078125q0 -1.546875 -0.5625 -2.234375q-0.546875 -0.6875 -1.421875 -0.6875q-0.84375 0 -1.421875 0.671875q-0.5625 0.671875 -0.5625 2.015625z" fill-rule="nonzero"/><path fill="#000000" d="m74.11906 536.50665l2.421875 0.765625q-0.5625 2.03125 -1.859375 3.03125q-1.296875 0.984375 -3.296875 0.984375q-2.46875 0 -4.0625 -1.6875q-1.578125 -1.703125 -1.578125 -4.625q0 -3.09375 1.59375 -4.796875q1.59375 -1.71875 4.203125 -1.71875q2.28125 0 3.703125 1.34375q0.84375 0.796875 1.265625 2.28125l-2.484375 0.59375q-0.21875 -0.96875 -0.921875 -1.515625q-0.6875 -0.5625 -1.6875 -0.5625q-1.375 0 -2.234375 0.984375q-0.859375 0.984375 -0.859375 3.203125q0 2.359375 0.84375 3.359375q0.84375 1.0 2.203125 1.0q1.0 0 1.71875 -0.640625q0.71875 -0.640625 1.03125 -2.0zm3.9981995 -0.0625q0 -1.171875 0.578125 -2.28125q0.59375 -1.109375 1.65625 -1.6875q1.078125 -0.59375 2.40625 -0.59375q2.03125 0 3.328125 1.328125q1.3125 1.3125 1.3125 3.34375q0 2.03125 -1.328125 3.375q-1.3125 1.34375 -3.296875 1.34375q-1.234375 0 -2.359375 -0.546875q-1.125 -0.5625 -1.71875 -1.640625q-0.578125 -1.09375 -0.578125 -2.640625zm2.4375 0.125q0 1.34375 0.640625 2.0625q0.640625 0.703125 1.5625 0.703125q0.9375 0 1.5625 -0.703125q0.625 -0.71875 0.625 -2.078125q0 -1.3125 -0.625 -2.015625q-0.625 -0.71875 -1.5625 -0.71875q-0.921875 0 -1.5625 0.71875q-0.640625 0.703125 -0.640625 2.03125zm8.522217 -4.484375l2.1875 0l0 1.21875q1.1875 -1.421875 2.8125 -1.421875q0.859375 0 1.484375 0.359375q0.640625 0.34375 1.046875 1.0625q0.59375 -0.71875 1.28125 -1.0625q0.6875 -0.359375 1.46875 -0.359375q0.984375 0 1.671875 0.40625q0.6875 0.390625 1.015625 1.171875q0.25 0.578125 0.25 1.859375l0 5.75l-2.375 0l0 -5.140625q0 -1.328125 -0.25 -1.71875q-0.328125 -0.515625 -1.015625 -0.515625q-0.5 0 -0.9375 0.3125q-0.4375 0.296875 -0.640625 0.890625q-0.1875 0.59375 -0.1875 1.859375l0 4.3125l-2.375 0l0 -4.921875q0 -1.3125 -0.125 -1.6875q-0.125 -0.390625 -0.390625 -0.578125q-0.265625 -0.1875 -0.734375 -0.1875q-0.546875 0 -0.984375 0.296875q-0.4375 0.296875 -0.640625 0.859375q-0.1875 0.5625 -0.1875 1.859375l0 4.359375l-2.375 0l0 -8.984375zm15.407486 0l2.1875 0l0 1.21875q1.1875 -1.421875 2.8125 -1.421875q0.859375 0 1.484375 0.359375q0.640625 0.34375 1.046875 1.0625q0.59375 -0.71875 1.28125 -1.0625q0.6875 -0.359375 1.46875 -0.359375q0.984375 0 1.671875 0.40625q0.6875 0.390625 1.015625 1.171875q0.25 0.578125 0.25 1.859375l0 5.75l-2.375 0l0 -5.140625q0 -1.328125 -0.25 -1.71875q-0.328125 -0.515625 -1.015625 -0.515625q-0.5 0 -0.9375 0.3125q-0.4375 0.296875 -0.640625 0.890625q-0.1875 0.59375 -0.1875 1.859375l0 4.3125l-2.375 0l0 -4.921875q0 -1.3125 -0.125 -1.6875q-0.125 -0.390625 -0.390625 -0.578125q-0.265625 -0.1875 -0.734375 -0.1875q-0.546875 0 -0.984375 0.296875q-0.4375 0.296875 -0.640625 0.859375q-0.1875 0.5625 -0.1875 1.859375l0 4.359375l-2.375 0l0 -8.984375zm17.360611 2.734375l-2.15625 -0.390625q0.375 -1.296875 1.25 -1.921875q0.890625 -0.625 2.640625 -0.625q1.59375 0 2.375 0.375q0.78125 0.375 1.09375 0.953125q0.3125 0.578125 0.3125 2.125l-0.015625 2.78125q0 1.1875 0.109375 1.75q0.109375 0.5625 0.421875 1.203125l-2.34375 0q-0.09375 -0.234375 -0.234375 -0.703125q-0.0625 -0.203125 -0.078125 -0.28125q-0.609375 0.59375 -1.3125 0.890625q-0.6875 0.296875 -1.46875 0.296875q-1.390625 0 -2.1875 -0.75q-0.796875 -0.75 -0.796875 -1.90625q0 -0.765625 0.359375 -1.359375q0.359375 -0.59375 1.015625 -0.90625q0.65625 -0.328125 1.890625 -0.5625q1.671875 -0.3125 2.3125 -0.578125l0 -0.234375q0 -0.6875 -0.34375 -0.984375q-0.328125 -0.296875 -1.28125 -0.296875q-0.625 0 -0.984375 0.25q-0.359375 0.25 -0.578125 0.875zm3.1875 1.9375q-0.453125 0.15625 -1.453125 0.375q-0.984375 0.203125 -1.296875 0.40625q-0.453125 0.328125 -0.453125 0.828125q0 0.5 0.359375 0.875q0.375 0.359375 0.953125 0.359375q0.640625 0 1.234375 -0.421875q0.421875 -0.328125 0.5625 -0.796875q0.09375 -0.296875 0.09375 -1.15625l0 -0.46875zm12.855827 4.3125l-2.375 0l0 -4.578125q0 -1.46875 -0.15625 -1.890625q-0.15625 -0.421875 -0.5 -0.65625q-0.34375 -0.25 -0.828125 -0.25q-0.609375 0 -1.109375 0.34375q-0.484375 0.34375 -0.671875 0.90625q-0.171875 0.546875 -0.171875 2.0625l0 4.0625l-2.375 0l0 -8.984375l2.203125 0l0 1.3125q1.171875 -1.515625 2.953125 -1.515625q0.796875 0 1.4375 0.28125q0.65625 0.28125 0.984375 0.734375q0.34375 0.4375 0.46875 1.0q0.140625 0.546875 0.140625 1.59375l0 5.578125zm10.647217 0l-2.203125 0l0 -1.3125q-0.5625 0.765625 -1.3125 1.140625q-0.734375 0.375 -1.5 0.375q-1.546875 0 -2.65625 -1.25q-1.109375 -1.25 -1.109375 -3.484375q0 -2.28125 1.078125 -3.46875q1.078125 -1.1875 2.71875 -1.1875q1.5 0 2.609375 1.25l0 -4.46875l2.375 0l0 12.40625zm-6.34375 -4.6875q0 1.4375 0.390625 2.078125q0.578125 0.9375 1.609375 0.9375q0.828125 0 1.390625 -0.703125q0.578125 -0.703125 0.578125 -2.078125q0 -1.546875 -0.5625 -2.234375q-0.546875 -0.6875 -1.421875 -0.6875q-0.84375 0 -1.421875 0.671875q-0.5625 0.671875 -0.5625 2.015625zm7.850342 2.125l2.390625 -0.359375q0.140625 0.6875 0.609375 1.046875q0.46875 0.359375 1.3125 0.359375q0.921875 0 1.375 -0.34375q0.3125 -0.234375 0.3125 -0.625q0 -0.28125 -0.15625 -0.453125q-0.1875 -0.171875 -0.796875 -0.3125q-2.875 -0.640625 -3.65625 -1.15625q-1.0625 -0.734375 -1.0625 -2.03125q0 -1.15625 0.921875 -1.953125q0.921875 -0.796875 2.859375 -0.796875q1.84375 0 2.734375 0.609375q0.90625 0.59375 1.25 1.765625l-2.25 0.421875q-0.140625 -0.53125 -0.546875 -0.8125q-0.390625 -0.28125 -1.140625 -0.28125q-0.9375 0 -1.34375 0.265625q-0.28125 0.1875 -0.28125 0.484375q0 0.25 0.25 0.4375q0.3125 0.234375 2.203125 0.671875q1.90625 0.421875 2.671875 1.046875q0.734375 0.640625 0.734375 1.765625q0 1.234375 -1.03125 2.125q-1.03125 0.890625 -3.046875 0.890625q-1.84375 0 -2.921875 -0.734375q-1.0625 -0.75 -1.390625 -2.03125z" fill-rule="nonzero"/><path fill="#000000" d="m98.17792 557.50665l2.421875 0.765625q-0.5625 2.03125 -1.859375 3.03125q-1.296875 0.984375 -3.296875 0.984375q-2.46875 0 -4.0625 -1.6875q-1.578125 -1.703125 -1.578125 -4.625q0 -3.09375 1.59375 -4.796875q1.59375 -1.71875 4.203125 -1.71875q2.28125 0 3.703125 1.34375q0.84375 0.796875 1.265625 2.28125l-2.484375 0.59375q-0.21875 -0.96875 -0.921875 -1.515625q-0.6875 -0.5625 -1.6875 -0.5625q-1.375 0 -2.234375 0.984375q-0.859375 0.984375 -0.859375 3.203125q0 2.359375 0.84375 3.359375q0.84375 1.0 2.203125 1.0q1.0 0 1.71875 -0.640625q0.71875 -0.640625 1.03125 -2.0zm4.5606995 4.5625l0 -12.40625l2.375 0l0 12.40625l-2.375 0zm6.579941 -6.25l-2.15625 -0.390625q0.375 -1.296875 1.25 -1.921875q0.890625 -0.625 2.640625 -0.625q1.59375 0 2.375 0.375q0.78125 0.375 1.09375 0.953125q0.3125 0.578125 0.3125 2.125l-0.015625 2.78125q0 1.1875 0.109375 1.75q0.109375 0.5625 0.421875 1.203125l-2.34375 0q-0.09375 -0.234375 -0.234375 -0.703125q-0.0625 -0.203125 -0.078125 -0.28125q-0.609375 0.59375 -1.3125 0.890625q-0.6875 0.296875 -1.46875 0.296875q-1.390625 0 -2.1875 -0.75q-0.796875 -0.75 -0.796875 -1.90625q0 -0.765625 0.359375 -1.359375q0.359375 -0.59375 1.015625 -0.90625q0.65625 -0.328125 1.890625 -0.5625q1.671875 -0.3125 2.3125 -0.578125l0 -0.234375q0 -0.6875 -0.34375 -0.984375q-0.328125 -0.296875 -1.28125 -0.296875q-0.625 0 -0.984375 0.25q-0.359375 0.25 -0.578125 0.875zm3.1875 1.9375q-0.453125 0.15625 -1.453125 0.375q-0.984375 0.203125 -1.296875 0.40625q-0.453125 0.328125 -0.453125 0.828125q0 0.5 0.359375 0.875q0.375 0.359375 0.953125 0.359375q0.640625 0 1.234375 -0.421875q0.421875 -0.328125 0.5625 -0.796875q0.09375 -0.296875 0.09375 -1.15625l0 -0.46875zm3.84021 1.75l2.390625 -0.359375q0.140625 0.6875 0.609375 1.046875q0.46875 0.359375 1.3125 0.359375q0.921875 0 1.375 -0.34375q0.3125 -0.234375 0.3125 -0.625q0 -0.28125 -0.15625 -0.453125q-0.1875 -0.171875 -0.796875 -0.3125q-2.875 -0.640625 -3.65625 -1.15625q-1.0625 -0.734375 -1.0625 -2.03125q0 -1.15625 0.921875 -1.953125q0.921875 -0.796875 2.859375 -0.796875q1.84375 0 2.734375 0.609375q0.90625 0.59375 1.25 1.765625l-2.25 0.421875q-0.140625 -0.53125 -0.546875 -0.8125q-0.390625 -0.28125 -1.140625 -0.28125q-0.9375 0 -1.34375 0.265625q-0.28125 0.1875 -0.28125 0.484375q0 0.25 0.25 0.4375q0.3125 0.234375 2.203125 0.671875q1.90625 0.421875 2.671875 1.046875q0.734375 0.640625 0.734375 1.765625q0 1.234375 -1.03125 2.125q-1.03125 0.890625 -3.046875 0.890625q-1.84375 0 -2.921875 -0.734375q-1.0625 -0.75 -1.390625 -2.03125zm9.637085 0l2.390625 -0.359375q0.140625 0.6875 0.609375 1.046875q0.46875 0.359375 1.3125 0.359375q0.921875 0 1.375 -0.34375q0.3125 -0.234375 0.3125 -0.625q0 -0.28125 -0.15625 -0.453125q-0.1875 -0.171875 -0.796875 -0.3125q-2.875 -0.640625 -3.65625 -1.15625q-1.0625 -0.734375 -1.0625 -2.03125q0 -1.15625 0.921875 -1.953125q0.921875 -0.796875 2.859375 -0.796875q1.84375 0 2.734375 0.609375q0.90625 0.59375 1.25 1.765625l-2.25 0.421875q-0.140625 -0.53125 -0.546875 -0.8125q-0.390625 -0.28125 -1.140625 -0.28125q-0.9375 0 -1.34375 0.265625q-0.28125 0.1875 -0.28125 0.484375q0 0.25 0.25 0.4375q0.3125 0.234375 2.203125 0.671875q1.90625 0.421875 2.671875 1.046875q0.734375 0.640625 0.734375 1.765625q0 1.234375 -1.03125 2.125q-1.03125 0.890625 -3.046875 0.890625q-1.84375 0 -2.921875 -0.734375q-1.0625 -0.75 -1.390625 -2.03125z" fill-rule="nonzero"/><path fill="#000000" fill-opacity="0.0" d="m112.09449 274.11023l0 211.37009" fill-rule="evenodd"/><path stroke="#000000" stroke-width="3.0" stroke-linejoin="round" stroke-linecap="butt" d="m112.09449 274.11023l0 193.37009" fill-rule="evenodd"/><path fill="#000000" stroke="#000000" stroke-width="3.0" stroke-linecap="butt" d="m107.13929 467.48032l4.9552 13.614288l4.9551926 -13.614288z" fill-rule="evenodd"/><path fill="#000000" fill-opacity="0.0" d="m171.5748 534.92914l114.99213 -98.14172" fill-rule="evenodd"/><path stroke="#000000" stroke-width="3.0" stroke-linejoin="round" stroke-linecap="butt" d="m171.5748 534.92914l101.30066 -86.45654" fill-rule="evenodd"/><path fill="#000000" stroke="#000000" stroke-width="3.0" stroke-linecap="butt" d="m276.09225 452.2417l7.138733 -12.607208l-13.572327 5.0690002z" fill-rule="evenodd"/><path fill="#000000" fill-opacity="0.0" d="m312.84778 534.92914l-141.25986 0" fill-rule="evenodd"/><path stroke="#666666" stroke-width="3.0" stroke-linejoin="round" stroke-linecap="butt" d="m312.84778 534.92914l-123.25986 0" fill-rule="evenodd"/><path fill="#666666" stroke="#666666" stroke-width="3.0" stroke-linecap="butt" d="m189.58792 529.97394l-13.614288 4.9552l13.614288 4.9552z" fill-rule="evenodd"/><path fill="#000000" fill-opacity="0.0" d="m372.3281 485.48032l-26.26773 -116.346466" fill-rule="evenodd"/><path stroke="#666666" stroke-width="3.0" stroke-linejoin="round" stroke-linecap="butt" d="m372.3281 485.48032l-22.30362 -98.78839" fill-rule="evenodd"/><path fill="#666666" stroke="#666666" stroke-width="3.0" stroke-linecap="butt" d="m354.85803 385.60065l-7.8318176 -12.188751l-1.8352661 14.371307z" fill-rule="evenodd"/><path fill="#000000" fill-opacity="0.0" d="m372.3281 485.48032l85.76376 -66.897644" fill-rule="evenodd"/><path stroke="#666666" stroke-width="3.0" stroke-linejoin="round" stroke-linecap="butt" d="m372.3281 485.48032l71.57089 -55.826843" fill-rule="evenodd"/><path fill="#666666" stroke="#666666" stroke-width="3.0" stroke-linecap="butt" d="m446.94662 433.56058l7.687134 -12.280518l-13.78244 4.4662476z" fill-rule="evenodd"/><path fill="#000000" fill-opacity="0.0" d="m372.3281 584.3779l0 25.000305l-344.71518 0l0 -384.7168l24.998636 0" fill-rule="evenodd"/><path stroke="#666666" stroke-width="3.0" stroke-linejoin="round" stroke-linecap="butt" d="m372.3281 584.3779l0 25.000305l-344.71518 0l0 -384.7168l6.998638 0" fill-rule="evenodd"/><path fill="#666666" stroke="#666666" stroke-width="3.0" stroke-linecap="butt" d="m34.61155 229.61661l13.614292 -4.955185l-13.614292 -4.9552z" fill-rule="evenodd"/></g></svg>